<mxfile host="app.diagrams.net" modified="2023-09-02T21:00:21.426Z" agent="Mozilla/5.0 (Macintosh; Intel Mac OS X 10_15_7) AppleWebKit/605.1.15 (KHTML, like Gecko) Version/16.2 Safari/605.1.15" etag="HrBGykTIXayCtqk-TL1b" version="21.7.2" type="device">
  <diagram name="Page-1" id="GLX8VUpWrC75SElmZq7b">
    <mxGraphModel dx="1026" dy="719" grid="1" gridSize="10" guides="1" tooltips="1" connect="1" arrows="1" fold="1" page="1" pageScale="1" pageWidth="850" pageHeight="1100" math="1" shadow="0">
      <root>
        <mxCell id="0" />
        <mxCell id="1" parent="0" />
        <mxCell id="ZHMJaefB9dMm8-ZNesY6-31" value="The Reparameterization Trick" style="rounded=1;whiteSpace=wrap;html=1;dashed=1;verticalAlign=top;" vertex="1" parent="1">
          <mxGeometry x="550" y="20" width="230" height="620" as="geometry" />
        </mxCell>
        <mxCell id="ZHMJaefB9dMm8-ZNesY6-19" style="edgeStyle=orthogonalEdgeStyle;rounded=0;orthogonalLoop=1;jettySize=auto;html=1;exitX=1;exitY=0.5;exitDx=0;exitDy=0;entryX=0.5;entryY=0;entryDx=0;entryDy=0;" edge="1" parent="1" source="ZHMJaefB9dMm8-ZNesY6-9" target="ZHMJaefB9dMm8-ZNesY6-18">
          <mxGeometry relative="1" as="geometry" />
        </mxCell>
        <mxCell id="ZHMJaefB9dMm8-ZNesY6-9" value="\(\mu\)" style="rounded=1;whiteSpace=wrap;html=1;imageVerticalAlign=middle;verticalAlign=top;fillColor=#fad7ac;strokeColor=#b46504;" vertex="1" parent="1">
          <mxGeometry x="580" y="70" width="110" height="210" as="geometry" />
        </mxCell>
        <mxCell id="ZHMJaefB9dMm8-ZNesY6-25" style="edgeStyle=orthogonalEdgeStyle;rounded=0;orthogonalLoop=1;jettySize=auto;html=1;exitX=0.5;exitY=1;exitDx=0;exitDy=0;entryX=0.5;entryY=0;entryDx=0;entryDy=0;" edge="1" parent="1" source="ZHMJaefB9dMm8-ZNesY6-1" target="ZHMJaefB9dMm8-ZNesY6-2">
          <mxGeometry relative="1" as="geometry" />
        </mxCell>
        <mxCell id="ZHMJaefB9dMm8-ZNesY6-1" value="&lt;font face=&quot;Courier New&quot;&gt;ConvBlock&lt;/font&gt;" style="rounded=1;whiteSpace=wrap;html=1;fillColor=#6d8764;strokeColor=#3A5431;fontColor=#ffffff;rotation=-90;" vertex="1" parent="1">
          <mxGeometry x="-40" y="270" width="300" height="40" as="geometry" />
        </mxCell>
        <mxCell id="ZHMJaefB9dMm8-ZNesY6-26" style="edgeStyle=orthogonalEdgeStyle;rounded=0;orthogonalLoop=1;jettySize=auto;html=1;exitX=0.5;exitY=1;exitDx=0;exitDy=0;entryX=0;entryY=0.5;entryDx=0;entryDy=0;" edge="1" parent="1" source="ZHMJaefB9dMm8-ZNesY6-2" target="ZHMJaefB9dMm8-ZNesY6-3">
          <mxGeometry relative="1" as="geometry" />
        </mxCell>
        <mxCell id="ZHMJaefB9dMm8-ZNesY6-2" value="&lt;font face=&quot;Courier New&quot;&gt;ConvBlock&lt;/font&gt;" style="rounded=1;whiteSpace=wrap;html=1;fillColor=#6d8764;strokeColor=#3A5431;fontColor=#ffffff;rotation=-90;" vertex="1" parent="1">
          <mxGeometry x="140" y="255" width="160" height="70" as="geometry" />
        </mxCell>
        <mxCell id="ZHMJaefB9dMm8-ZNesY6-30" style="edgeStyle=orthogonalEdgeStyle;rounded=0;orthogonalLoop=1;jettySize=auto;html=1;exitX=1;exitY=0.5;exitDx=0;exitDy=0;entryX=0;entryY=0.5;entryDx=0;entryDy=0;" edge="1" parent="1" source="ZHMJaefB9dMm8-ZNesY6-3" target="ZHMJaefB9dMm8-ZNesY6-4">
          <mxGeometry relative="1" as="geometry" />
        </mxCell>
        <mxCell id="ZHMJaefB9dMm8-ZNesY6-3" value="•••" style="text;html=1;strokeColor=none;fillColor=none;align=center;verticalAlign=middle;whiteSpace=wrap;rounded=0;" vertex="1" parent="1">
          <mxGeometry x="280" y="275" width="60" height="30" as="geometry" />
        </mxCell>
        <mxCell id="ZHMJaefB9dMm8-ZNesY6-28" style="edgeStyle=orthogonalEdgeStyle;rounded=0;orthogonalLoop=1;jettySize=auto;html=1;exitX=1;exitY=0.5;exitDx=0;exitDy=0;entryX=0;entryY=0.5;entryDx=0;entryDy=0;" edge="1" parent="1" source="ZHMJaefB9dMm8-ZNesY6-4" target="ZHMJaefB9dMm8-ZNesY6-9">
          <mxGeometry relative="1" as="geometry" />
        </mxCell>
        <mxCell id="ZHMJaefB9dMm8-ZNesY6-29" style="edgeStyle=orthogonalEdgeStyle;rounded=0;orthogonalLoop=1;jettySize=auto;html=1;exitX=1;exitY=0.5;exitDx=0;exitDy=0;entryX=0;entryY=0.5;entryDx=0;entryDy=0;" edge="1" parent="1" source="ZHMJaefB9dMm8-ZNesY6-4" target="ZHMJaefB9dMm8-ZNesY6-10">
          <mxGeometry relative="1" as="geometry" />
        </mxCell>
        <mxCell id="ZHMJaefB9dMm8-ZNesY6-4" value="&lt;font face=&quot;Courier New&quot;&gt;ConvBlock&lt;/font&gt;" style="rounded=1;whiteSpace=wrap;html=1;fillColor=#6d8764;strokeColor=#3A5431;fontColor=#ffffff;rotation=0;" vertex="1" parent="1">
          <mxGeometry x="360" y="270" width="177" height="40" as="geometry" />
        </mxCell>
        <mxCell id="ZHMJaefB9dMm8-ZNesY6-5" value="Linear" style="rounded=1;whiteSpace=wrap;html=1;fillColor=#f0a30a;fontColor=#000000;strokeColor=#BD7000;rotation=-90;" vertex="1" parent="1">
          <mxGeometry x="530" y="171.25" width="160" height="30" as="geometry" />
        </mxCell>
        <mxCell id="ZHMJaefB9dMm8-ZNesY6-6" value="Linear" style="rounded=1;whiteSpace=wrap;html=1;fillColor=#f0a30a;fontColor=#000000;strokeColor=#BD7000;rotation=-90;" vertex="1" parent="1">
          <mxGeometry x="580" y="171.25" width="160" height="30" as="geometry" />
        </mxCell>
        <mxCell id="ZHMJaefB9dMm8-ZNesY6-17" style="edgeStyle=orthogonalEdgeStyle;rounded=0;orthogonalLoop=1;jettySize=auto;html=1;entryX=0;entryY=0.5;entryDx=0;entryDy=0;" edge="1" parent="1" source="ZHMJaefB9dMm8-ZNesY6-10" target="ZHMJaefB9dMm8-ZNesY6-15">
          <mxGeometry relative="1" as="geometry" />
        </mxCell>
        <mxCell id="ZHMJaefB9dMm8-ZNesY6-10" value="\(\log \sigma\)" style="rounded=1;whiteSpace=wrap;html=1;imageVerticalAlign=middle;verticalAlign=top;fillColor=#fad7ac;strokeColor=#b46504;" vertex="1" parent="1">
          <mxGeometry x="580" y="310" width="110" height="210" as="geometry" />
        </mxCell>
        <mxCell id="ZHMJaefB9dMm8-ZNesY6-11" value="Linear" style="rounded=1;whiteSpace=wrap;html=1;fillColor=#f0a30a;fontColor=#000000;strokeColor=#BD7000;rotation=-90;" vertex="1" parent="1">
          <mxGeometry x="530" y="411.25" width="160" height="30" as="geometry" />
        </mxCell>
        <mxCell id="ZHMJaefB9dMm8-ZNesY6-12" value="Linear" style="rounded=1;whiteSpace=wrap;html=1;fillColor=#f0a30a;fontColor=#000000;strokeColor=#BD7000;rotation=-90;" vertex="1" parent="1">
          <mxGeometry x="580" y="411.25" width="160" height="30" as="geometry" />
        </mxCell>
        <mxCell id="ZHMJaefB9dMm8-ZNesY6-16" style="edgeStyle=orthogonalEdgeStyle;rounded=0;orthogonalLoop=1;jettySize=auto;html=1;entryX=0.5;entryY=1;entryDx=0;entryDy=0;" edge="1" parent="1" source="ZHMJaefB9dMm8-ZNesY6-13" target="ZHMJaefB9dMm8-ZNesY6-15">
          <mxGeometry relative="1" as="geometry" />
        </mxCell>
        <mxCell id="ZHMJaefB9dMm8-ZNesY6-13" value="\(\mathcal{N}(0, 1)\)" style="rounded=1;whiteSpace=wrap;html=1;fillColor=#76608a;fontColor=#ffffff;strokeColor=#432D57;" vertex="1" parent="1">
          <mxGeometry x="580" y="550" width="110" height="60" as="geometry" />
        </mxCell>
        <mxCell id="ZHMJaefB9dMm8-ZNesY6-14" value="\(z\)" style="rounded=1;whiteSpace=wrap;html=1;rotation=-90;fillColor=#647687;fontColor=#ffffff;strokeColor=#314354;" vertex="1" parent="1">
          <mxGeometry x="730" y="275" width="170" height="30" as="geometry" />
        </mxCell>
        <mxCell id="ZHMJaefB9dMm8-ZNesY6-20" style="edgeStyle=orthogonalEdgeStyle;rounded=0;orthogonalLoop=1;jettySize=auto;html=1;exitX=0.5;exitY=0;exitDx=0;exitDy=0;entryX=0.5;entryY=1;entryDx=0;entryDy=0;" edge="1" parent="1" source="ZHMJaefB9dMm8-ZNesY6-15" target="ZHMJaefB9dMm8-ZNesY6-18">
          <mxGeometry relative="1" as="geometry" />
        </mxCell>
        <mxCell id="ZHMJaefB9dMm8-ZNesY6-15" value="+" style="ellipse;whiteSpace=wrap;html=1;aspect=fixed;" vertex="1" parent="1">
          <mxGeometry x="730" y="400" width="30" height="30" as="geometry" />
        </mxCell>
        <mxCell id="ZHMJaefB9dMm8-ZNesY6-21" style="edgeStyle=orthogonalEdgeStyle;rounded=0;orthogonalLoop=1;jettySize=auto;html=1;exitX=1;exitY=0.5;exitDx=0;exitDy=0;entryX=0.5;entryY=0;entryDx=0;entryDy=0;" edge="1" parent="1" source="ZHMJaefB9dMm8-ZNesY6-18" target="ZHMJaefB9dMm8-ZNesY6-14">
          <mxGeometry relative="1" as="geometry" />
        </mxCell>
        <mxCell id="ZHMJaefB9dMm8-ZNesY6-18" value="\(\times\)" style="ellipse;whiteSpace=wrap;html=1;aspect=fixed;" vertex="1" parent="1">
          <mxGeometry x="730" y="275" width="30" height="30" as="geometry" />
        </mxCell>
      </root>
    </mxGraphModel>
  </diagram>
</mxfile>
